<?xml version="1.0" encoding="UTF-8"?><svg xmlns="http://www.w3.org/2000/svg" xmlns:xlink="http://www.w3.org/1999/xlink" data-name="Réteg 1" height="160.4" preserveAspectRatio="xMidYMid meet" version="1.0" viewBox="-0.0 -0.1 200.0 160.4" width="200.0" zoomAndPan="magnify"><g id="change1_1"><path d="M154.52,158C136.41,112.22,142.81,57.63,173,18.4l6.73,5.42C148.26,60.08,139.64,112.63,154.52,158Z" fill="#fff"/></g><g id="change1_2"><path d="M147.09,159.16c-10.8-23.67-16.56-49.51-28.44-72.31-11.51-23-30-41.31-51.39-55.18l4.89-7.13C93.54,40.12,112,60.57,122.54,85c10.87,24.11,15.07,50,24.55,74.19Z" fill="#fff"/></g><g id="change1_3"><path d="M139.66,160.35C119.32,117.13,74.38,83.16,25.11,90.06l-.77-8.61c51.53-4.21,96.89,32.7,115.32,78.9Z" fill="#fff"/></g><g id="change2_1"><path d="M1.24,71.17a1,1,0,0,1,.69-.12.85.85,0,0,1,.22.09c4,2.73,8.74,4.17,13.14,6.19A129.12,129.12,0,0,0,23.66,67c.33-.46.65-.93,1-1.4a1,1,0,0,1,.53-.43.93.93,0,0,1,.47,0l.22.08a.93.93,0,0,1,.31.28.91.91,0,0,1,.28.6c.14,5,.5,10,.63,15,4.48,1.8,8.73,4.26,13.49,5.32a.67.67,0,0,1,.21.1.93.93,0,0,1,.37.58.86.86,0,0,1-.3.85,23.62,23.62,0,0,1-3.62,2,35.24,35.24,0,0,1-3.76,1.39c-2.3.71-4.64,1.24-7,1.77-.08,4.08-.5,8.16-.39,12.26a.9.9,0,0,1-1.42.66,18.26,18.26,0,0,1-3-2.78,37.71,37.71,0,0,1-2.34-3,43.05,43.05,0,0,0-4.52-5.65,48.31,48.31,0,0,0-6.29,2.2c-1.18.47-2.37.92-3.58,1.27a19.66,19.66,0,0,1-4,.74.93.93,0,0,1-.81-.42.92.92,0,0,1,0-.91c2.39-3.54,4.3-7.37,6.56-11a1.09,1.09,0,0,1,.39-.38C5.8,84,4.54,81.9,3.45,79.69A35.52,35.52,0,0,1,1.86,76a23.41,23.41,0,0,1-1-4A.89.89,0,0,1,1.24,71.17Z" fill="#ea2200"/></g><g id="change3_1"><path d="M45.69,26.2a1,1,0,0,1,.36-.6.68.68,0,0,1,.21-.1c4.72-1.23,8.9-3.81,13.33-5.78a128.86,128.86,0,0,0-2.2-13.08c-.13-.55-.26-1.1-.4-1.65a.94.94,0,0,1,0-.68.82.82,0,0,1,.29-.37.71.71,0,0,1,.21-.11.87.87,0,0,1,.42-.05.86.86,0,0,1,.63.19c3.84,3.2,7.83,6.21,11.66,9.42,4.31-2.18,9-3.74,12.91-6.61a.51.51,0,0,1,.21-.1.9.9,0,0,1,.68.11.87.87,0,0,1,.44.79,23.21,23.21,0,0,1-.89,4,36.05,36.05,0,0,1-1.44,3.74c-1,2.2-2.14,4.3-3.29,6.41,3,2.76,5.81,5.77,9,8.4A.87.87,0,0,1,88,31a.91.91,0,0,1-.66.63,19,19,0,0,1-4,.4,36.89,36.89,0,0,1-3.79-.23,41.69,41.69,0,0,0-7.23-.33,44.92,44.92,0,0,0-2.51,6.18c-.43,1.19-.88,2.37-1.41,3.52a19.44,19.44,0,0,1-2.1,3.5.89.89,0,0,1-.84.32.88.88,0,0,1-.71-.57c-1.08-4.14-2.69-8.1-3.92-12.19a1,1,0,0,1,0-.55c-2.42-.45-4.84-.9-7.22-1.54a36.44,36.44,0,0,1-3.83-1.25A23.34,23.34,0,0,1,46,27.05.88.88,0,0,1,45.69,26.2Z" fill="#2a71db"/></g><g id="change2_2"><path d="M167.49,0a1,1,0,0,1,.7.11.52.52,0,0,1,.17.16c2.93,3.9,6.9,6.79,10.4,10.14a128.11,128.11,0,0,0,11.27-7l1.38-1a1.05,1.05,0,0,1,.64-.24.91.91,0,0,1,.45.14.9.9,0,0,1,.19.15,1,1,0,0,1,.2.36.89.89,0,0,1,.06.66c-1.5,4.77-2.79,9.6-4.3,14.36,3.65,3.17,6.86,6.88,11,9.44a.65.65,0,0,1,.17.16,1,1,0,0,1,.16.68.89.89,0,0,1-.57.7,23.3,23.3,0,0,1-4.06.7,35.84,35.84,0,0,1-4,.09c-2.41-.08-4.79-.35-7.18-.61-1.42,3.83-3.14,7.55-4.38,11.46a.89.89,0,0,1-.73.53.93.93,0,0,1-.83-.37,19.38,19.38,0,0,1-1.91-3.6c-.47-1.18-.86-2.38-1.22-3.6a42.76,42.76,0,0,0-2.43-6.81,46.41,46.41,0,0,0-6.67,0c-1.26.06-2.53.09-3.79,0a19.54,19.54,0,0,1-4-.62.9.9,0,0,1-.36-1.53c3.42-2.56,6.48-5.56,9.79-8.25a1,1,0,0,1,.5-.23c-.5-2.41-1-4.82-1.31-7.27a33.66,33.66,0,0,1-.29-4,22.75,22.75,0,0,1,.33-4.12A.88.88,0,0,1,167.49,0Z" fill="#ea2200"/></g></svg>