<?xml version="1.0" encoding="UTF-8" standalone="no"?><svg xmlns="http://www.w3.org/2000/svg" xmlns:xlink="http://www.w3.org/1999/xlink" fill="#000000" height="92.8" preserveAspectRatio="xMidYMid meet" version="1" viewBox="-0.1 -0.0 321.7 92.8" width="321.7" zoomAndPan="magnify"><g><g><g><g id="change1_1"><path d="M220.45,56.63c-.63-.72-1.29-1.42-1.98-2.09-.69-.66-1.41-1.3-2.15-1.91l-.57-.45-.14-.11-.13-.1-.26-.19c-.35-.26-.7-.52-1.05-.77l-1.07-.74c-.18-.12-.36-.24-.54-.36l-.54-.35c-.18-.12-.36-.23-.55-.35l-.55-.33c-.37-.22-.73-.44-1.11-.65l-1.12-.62-1.13-.58c-1.52-.76-3.05-1.45-4.61-2.06-1.56-.61-3.12-1.15-4.7-1.63-1.58-.48-3.17-.88-4.76-1.24l-1.2-.26-1.2-.23-.6-.11-.6-.1-1.21-.19-1.21-.16-.61-.08-.61-.07-1.21-.13-1.21-.1-.61-.05-.61-.03-1.22-.06-1.22-.03c-.2,0-.41-.01-.61-.02h-.61c-.41,0-.81,0-1.22,0l-1.21,.03c-.2,0-.41,0-.61,.02l-.61,.03c-.4,.02-.81,.04-1.21,.06-3.23,.21-6.44,.62-9.61,1.26-6.34,1.26-12.51,3.39-18.3,6.31l-1.08,.56c-.36,.19-.71,.39-1.07,.58-.72,.38-1.41,.8-2.12,1.21-1.39,.84-2.77,1.71-4.1,2.66-1.34,.93-2.6,1.88-3.81,2.84-1.21,.96-2.39,1.92-3.52,2.88-1.13,.95-2.24,1.9-3.32,2.83-1.08,.93-2.13,1.83-3.18,2.71-2.08,1.75-4.11,3.39-6.12,4.79-.5,.36-1,.68-1.5,1.01l-.74,.47c-.12,.08-.25,.15-.37,.22l-.37,.22c-.98,.57-1.96,1.08-2.92,1.51-.96,.42-1.91,.76-2.85,1.03l-.35,.09-.18,.05c-.06,.02-.12,.03-.18,.04-.23,.05-.47,.1-.7,.15-.06,.02-.12,.02-.18,.03l-.18,.03-.35,.06c-.23,.05-.47,.06-.7,.09l-.35,.04c-.12,.01-.22,.01-.34,.02l-.33,.02c-.11,0-.22,.02-.33,.01-.22,0-.45,0-.67,0-.22-.01-.45-.03-.67-.04-.9-.07-1.8-.21-2.7-.43-.23-.06-.45-.13-.68-.19-.23-.07-.45-.15-.68-.22-.23-.06-.45-.17-.67-.25l-.34-.13-.33-.15-.34-.15c-.06-.02-.11-.05-.17-.07l-.17-.08-.66-.33c-.22-.12-.44-.24-.66-.36-.11-.06-.22-.13-.32-.19l-.32-.2c-.86-.54-1.7-1.14-2.51-1.81-.8-.67-1.57-1.4-2.3-2.18l-.54-.59c-.18-.2-.34-.41-.52-.61-.18-.2-.34-.42-.5-.63l-.25-.32c-.08-.1-.16-.22-.24-.33l-.24-.33c-.08-.11-.16-.22-.23-.33l-.45-.67c-.15-.23-.28-.46-.42-.69-.15-.23-.27-.46-.4-.7-.13-.23-.27-.47-.38-.71-.12-.24-.25-.48-.36-.72l-.34-.73c-.06-.12-.1-.24-.16-.37l-.15-.37c-.05-.12-.11-.24-.15-.37l-.14-.37c-.09-.25-.19-.49-.26-.74-.08-.25-.17-.5-.24-.75l-.21-.75c-.13-.5-.25-1.02-.35-1.53-.1-.51-.18-1.03-.25-1.55-.03-.26-.07-.52-.08-.78l-.04-.39-.02-.39v-.19l-.02-.19-.02-.39v-.38c0-.13,0-.26,0-.38v-.38l.02-.38c0-.25,.03-.5,.04-.75,.05-.49,.1-.98,.18-1.45,.15-.95,.38-1.83,.66-2.66,.15-.41,.3-.81,.48-1.18,.08-.19,.18-.36,.27-.55,.05-.09,.1-.17,.15-.26l.07-.13s.05-.08,.08-.12c.05-.08,.1-.17,.15-.25l.16-.24,.08-.12,.08-.11c.06-.08,.11-.15,.17-.23l.18-.22,.09-.11,.09-.1c.06-.07,.12-.14,.18-.21,.06-.06,.13-.13,.19-.2l.09-.1,.1-.09c.06-.06,.12-.12,.19-.18,.07-.06,.13-.12,.2-.18,.07-.06,.14-.11,.21-.17,.28-.22,.59-.44,.91-.63,.08-.05,.16-.1,.24-.15,.08-.05,.17-.09,.25-.14,.09-.04,.17-.09,.26-.13,.09-.05,.18-.08,.26-.13,.36-.17,.73-.32,1.11-.45,1.54-.53,3.3-.77,5-.64,.42,.03,.85,.07,1.26,.15,.42,.07,.81,.16,1.24,.28,.84,.23,1.69,.54,2.52,.94,.83,.41,1.64,.89,2.43,1.44l.29,.21c.1,.07,.2,.14,.29,.22,.19,.15,.38,.31,.57,.46l.56,.49s.09,.08,.14,.12l.13,.13,.27,.26c.71,.69,1.38,1.44,2,2.24l.45,.61c.04,.05,.08,.1,.11,.15l.1,.16,.21,.31c.07,.1,.14,.21,.21,.31l.19,.31,.19,.31,.18,.32c.94,1.7,1.6,3.52,1.87,5.2,.13,.84,.19,1.64,.14,2.37-.04,.73-.16,1.4-.36,2-.05,.15-.1,.3-.17,.45l-.05,.12-.02,.06-.03,.06c-.04,.07-.07,.15-.1,.23-.15,.3-.3,.6-.5,.89l-.07,.11-.08,.11-.16,.22c-.12,.14-.22,.3-.35,.44-.24,.3-.52,.59-.82,.89-1.21,1.18-2.91,2.32-4.89,3.32-.99,.5-2.05,.97-3.16,1.4-.55,.22-1.12,.43-1.7,.63-.58,.2-1.17,.4-1.76,.58-.13,.04-.28,.09-.42,.13l-.43,.13-.87,.26c-.29,.09-.58,.17-.87,.25l-.87,.24c-.58,.17-1.17,.31-1.75,.47-.29,.07-.58,.16-.88,.22l-.88,.21c-2.35,.56-4.71,1.04-7.09,1.45-.6,.09-1.19,.2-1.79,.29l-1.79,.26-1.8,.22c-.6,.07-1.2,.13-1.8,.19-2.4,.24-4.81,.39-7.22,.46-.6,.02-1.21,.04-1.81,.04h-1.8c-1.19,0-2.37-.03-3.55-.08-2.36-.11-4.69-.32-6.98-.65-4.57-.65-8.96-1.77-12.93-3.46-.13-.05-.25-.1-.37-.16l-.37-.16-.37-.16c-.12-.05-.24-.11-.36-.17-.24-.12-.48-.23-.72-.35l-.7-.36c-.24-.12-.46-.25-.69-.38-.23-.13-.46-.25-.68-.39l-.67-.4-.65-.42c-1.74-1.13-3.33-2.39-4.77-3.8-.09-.09-.18-.17-.27-.26l-.26-.28c-.18-.19-.36-.36-.53-.55l-.51-.57-.13-.14-.12-.15-.25-.3-.25-.29c-.08-.1-.16-.2-.24-.3l-.48-.61c-.31-.42-.63-.83-.92-1.27l-.23-.32-.11-.16-.11-.17-.43-.67c-.14-.22-.28-.46-.42-.68l-.21-.34-.2-.35c-.55-.93-1.05-1.9-1.53-2.9l-.36-.75-.34-.77c-.12-.25-.23-.51-.33-.77-.11-.26-.22-.52-.33-.78-.43-1.05-.82-2.13-1.2-3.22-.37-1.1-.73-2.21-1.05-3.34-.33-1.14-.64-2.28-.93-3.45l-.11-.44-.1-.44-.21-.88c-.13-.59-.27-1.18-.39-1.78-.26-1.19-.49-2.4-.72-3.61l-.17-.91-.16-.92-.16-.92-.13-.77s0,.05,0,.03h0l-3.21-.08c.02-.07,0-.16-.05-.21-.05-.06-.12-.09-.19-.11-.14-.04-.31-.02-.43,.08-.23,.21-.21,.58-.18,.84l.02,.13,.04,.22,.08,.46,.16,.92c.11,.62,.21,1.23,.33,1.84,.11,.61,.23,1.22,.35,1.83,.12,.61,.24,1.22,.37,1.82,.25,1.21,.53,2.41,.82,3.6,1.17,4.76,2.66,9.38,4.66,13.66l.38,.8,.4,.79c.07,.13,.13,.26,.2,.39l.21,.39c.14,.26,.27,.52,.42,.77,.57,1.02,1.18,2,1.81,2.97l.49,.71c.08,.12,.16,.24,.25,.35l.26,.35c.17,.23,.34,.46,.51,.69l.53,.67,.13,.17,.14,.16,.28,.33c.18,.22,.36,.44,.56,.65l.57,.63c.19,.21,.39,.41,.59,.61l.29,.31,.31,.29c.2,.19,.4,.4,.61,.59,.42,.38,.83,.76,1.27,1.12,.43,.37,.88,.71,1.32,1.06l.69,.5c.12,.08,.23,.17,.34,.25l.35,.24,.35,.24c.12,.08,.23,.16,.36,.24l.72,.46c.24,.15,.49,.29,.74,.44l.37,.22,.38,.21c1,.57,2.03,1.08,3.09,1.56l.79,.35,.81,.33c.13,.05,.27,.11,.4,.17l.41,.16c.27,.1,.54,.21,.82,.31,1.1,.4,2.22,.76,3.35,1.09,1.14,.32,2.29,.62,3.45,.88,.29,.07,.58,.12,.87,.19l.44,.09,.44,.08,.88,.17,.89,.15c1.18,.19,2.37,.36,3.57,.49,.6,.07,1.2,.12,1.8,.18,.6,.05,1.21,.1,1.81,.14,1.21,.08,2.43,.13,3.64,.16,1.22,.03,2.44,.03,3.67,.01,2.46-.04,4.91-.15,7.37-.35,2.45-.2,4.9-.48,7.33-.84,4.86-.73,9.68-1.78,14.4-3.14l1.77-.53c.59-.18,1.15-.36,1.72-.55,1.13-.38,2.23-.79,3.31-1.24,1.08-.44,2.11-.93,3.11-1.45,.5-.26,.98-.53,1.46-.81,.47-.29,.93-.57,1.38-.88,.89-.61,1.71-1.26,2.45-1.95,.74-.69,1.39-1.43,1.94-2.2l.2-.29,.19-.3,.1-.15,.09-.15,.18-.3c.06-.1,.11-.21,.16-.31,.05-.1,.11-.2,.16-.31,.09-.21,.2-.42,.28-.63l.13-.32,.11-.32c.04-.11,.07-.22,.1-.32l.05-.16,.04-.17c.06-.22,.11-.44,.16-.67,.04-.23,.09-.45,.12-.69,.14-.92,.17-1.89,.11-2.87-.03-.49-.09-.99-.17-1.48-.08-.5-.18-1-.31-1.5-.5-2-1.34-3.98-2.44-5.81-.07-.12-.14-.23-.21-.34l-.11-.17-.11-.17-.45-.68c-.16-.22-.32-.44-.48-.66-.08-.11-.16-.22-.24-.33l-.25-.32-.25-.32-.13-.16-.13-.15-.53-.61c-.18-.2-.37-.39-.56-.59-.09-.1-.18-.2-.28-.29l-.29-.28-.29-.28s-.1-.09-.15-.14l-.15-.13-.61-.53c-.21-.17-.42-.33-.63-.5-.11-.08-.21-.17-.32-.25l-.32-.23-.32-.23c-.05-.04-.11-.08-.16-.12l-.17-.11-.66-.43c-.46-.26-.9-.54-1.37-.77-.46-.25-.94-.45-1.41-.67-.48-.18-.96-.39-1.45-.54-.24-.08-.49-.17-.73-.23l-.74-.2c-.49-.11-.98-.21-1.48-.28-1.99-.29-4.06-.21-6.02,.22-1.96,.43-3.82,1.21-5.39,2.3-.4,.27-.77,.57-1.13,.87l-.27,.23-.25,.24c-.09,.08-.17,.17-.25,.25l-.25,.26c-.64,.7-1.22,1.48-1.72,2.32-1,1.68-1.7,3.62-2.09,5.69-.4,2.07-.48,4.26-.32,6.45,.09,1.09,.24,2.19,.45,3.27,.05,.27,.12,.54,.17,.81,.06,.27,.13,.54,.2,.8,.15,.53,.29,1.06,.47,1.58l.13,.39c.02,.07,.04,.13,.06,.2l.07,.19,.29,.78c.1,.26,.21,.51,.32,.77l.16,.38,.18,.38c.45,1.02,.99,2,1.55,2.96l.48,.79,.51,.78,.13,.19,.14,.19,.27,.38,.27,.38,.29,.37,.29,.37,.14,.18,.15,.18,.6,.71,.62,.69,.16,.17,.16,.17,.32,.33,.32,.33,.34,.32,.34,.32,.17,.16,.17,.15,.69,.61,.72,.57c.96,.75,1.97,1.43,3.01,2.04,1.04,.6,2.12,1.12,3.22,1.55l.41,.16,.21,.08c.07,.03,.14,.05,.21,.07l.84,.28,.84,.23c.07,.02,.14,.04,.21,.06l.21,.05,.43,.09c1.13,.23,2.28,.38,3.42,.41,.29,0,.57,0,.86,0h.21c.07,0,.14,0,.21-.01l.43-.03,.43-.02,.44-.05,.44-.05,.22-.02,.22-.04,.87-.14,.86-.19c.07-.02,.14-.03,.22-.05l.21-.06,.43-.12c.14-.04,.29-.07,.43-.12l.43-.14c1.14-.36,2.27-.8,3.39-1.34,1.12-.53,2.22-1.14,3.32-1.81,1.09-.67,2.18-1.41,3.25-2.19,1.08-.77,2.14-1.6,3.2-2.46,1.06-.85,2.12-1.74,3.19-2.65,2.13-1.81,4.28-3.7,6.53-5.57,1.13-.94,2.27-1.87,3.46-2.78,.6-.45,1.19-.91,1.81-1.35l.46-.34,.47-.33,.94-.66,.96-.63,.48-.31,.49-.3,.98-.6,.99-.58c.17-.1,.33-.19,.5-.29l.5-.28c.34-.18,.67-.37,1.01-.55l1.02-.53c.17-.09,.34-.18,.51-.26l.52-.25c5.49-2.68,11.34-4.58,17.34-5.69l1.13-.2,.28-.05,.28-.04,.57-.08c.75-.12,1.51-.21,2.27-.3,1.52-.17,3.04-.3,4.56-.37,3.05-.15,6.11-.07,9.16,.2,.38,.03,.76,.08,1.14,.12l.57,.06c.19,.02,.38,.05,.57,.07l1.14,.15c.38,.06,.76,.12,1.13,.18l.57,.09c.19,.03,.38,.07,.57,.1l1.13,.21c.75,.16,1.5,.31,2.24,.5,1.49,.36,2.98,.76,4.45,1.24,.18,.06,.37,.12,.55,.18l.55,.19c.36,.13,.73,.25,1.09,.39l1.09,.41,1.08,.44c1.43,.6,2.85,1.26,4.24,2,1.38,.74,2.74,1.54,4.06,2.42l.98,.67c.16,.11,.32,.23,.48,.35l.48,.35,.48,.36,.5,.39c.17,.13,.33,.27,.49,.4,.16,.14,.32,.27,.48,.41,1.26,1.11,2.43,2.33,3.49,3.65,1.06,1.32,2.02,2.75,2.83,4.31l.3,.59,.28,.61c.1,.2,.18,.41,.27,.62,.09,.21,.17,.41,.25,.63,.33,.85,.59,1.74,.8,2.66l.08,.35,.04,.17,.03,.18,.12,.71,.08,.73c.01,.12,.02,.24,.03,.37l.02,.37c.05,.99,.01,2-.14,3.02-.15,1.01-.41,2.02-.77,2.99-.1,.24-.19,.48-.29,.72-.1,.24-.22,.47-.33,.7-.06,.11-.11,.23-.17,.34l-.19,.34-.19,.34c-.06,.11-.14,.22-.21,.33l-.21,.32c-.07,.11-.14,.22-.22,.32-.16,.21-.31,.42-.47,.62-.17,.2-.33,.4-.5,.59-.17,.19-.35,.37-.53,.56-.73,.73-1.52,1.37-2.35,1.92-.21,.13-.41,.27-.63,.4l-.64,.37-.65,.33c-.22,.11-.43,.2-.65,.3-.87,.38-1.75,.69-2.64,.94-.88,.24-1.77,.42-2.65,.55-.44,.07-.88,.11-1.32,.15l-.66,.05c-.22,.02-.44,.02-.65,.03-.87,.03-1.74,.01-2.6-.05-.86-.06-1.71-.16-2.56-.3-.85-.14-1.69-.33-2.53-.56l-.31-.09c-.11-.03-.21-.06-.31-.09l-.59-.18c-.2-.06-.39-.13-.59-.2-.2-.07-.39-.13-.59-.21-1.55-.57-3.06-1.24-4.51-2.04l-.54-.3-.53-.31-.27-.16-.26-.16-.52-.33c-.69-.45-1.37-.92-2.03-1.42-1.32-1-2.56-2.1-3.71-3.3-.15-.15-.29-.3-.43-.46-.14-.15-.28-.3-.42-.46-.27-.32-.55-.63-.81-.96-.53-.64-1.03-1.32-1.51-2.01-.94-1.39-1.79-2.87-2.48-4.43-.09-.2-.17-.39-.26-.59l-.24-.59c-.04-.1-.08-.2-.12-.3l-.11-.3-.22-.6-.2-.61-.1-.31-.09-.31-.17-.63-.15-.63-.07-.32-.06-.32-.12-.64c-.04-.21-.07-.43-.1-.64-.03-.21-.07-.43-.09-.64l-.07-.64c-.02-.21-.03-.43-.05-.64-.04-.43-.05-.86-.06-1.29-.01-.86,0-1.72,.07-2.57,.06-.85,.17-1.7,.31-2.55,.29-1.69,.73-3.35,1.35-4.96,.08-.2,.15-.4,.23-.6l.25-.6,.13-.3,.14-.29,.28-.59,.3-.58,.15-.29,.16-.28,.33-.57,.35-.56,.17-.28,.18-.27,.37-.54,.39-.53,.2-.26,.21-.26,.42-.51,.44-.5,.22-.25,.23-.24,.47-.48,.49-.46,.24-.23c.08-.07,.17-.15,.25-.22l.51-.44c.17-.14,.35-.28,.53-.42l.27-.21c.09-.07,.18-.13,.27-.2l.55-.39c.37-.24,.74-.49,1.12-.71,.38-.23,.77-.44,1.15-.65,.39-.2,.78-.4,1.18-.58,.8-.36,1.61-.69,2.43-.96,1.64-.55,3.31-.92,4.97-1.16,.83-.11,1.66-.19,2.49-.24,.83-.04,1.65-.06,2.47-.05,3.27,.06,6.46,.56,9.54,1.39,1.51,.41,2.99,.89,4.43,1.41,1.44,.52,2.84,1.09,4.21,1.68,1.28,.55,2.52,1.12,3.76,1.7,1.23,.58,2.44,1.16,3.63,1.73,2.39,1.15,4.71,2.26,7.04,3.25,1.16,.5,2.33,.96,3.5,1.41,1.17,.43,2.34,.85,3.52,1.2,1.18,.37,2.36,.68,3.54,.98l.89,.2,.44,.1,.44,.08,.89,.17c.3,.05,.59,.09,.89,.14,.59,.1,1.18,.16,1.77,.24l.22,.03,.22,.02,.44,.04,.44,.04c.15,.01,.29,.03,.44,.03,.59,.02,1.17,.07,1.76,.06h.88c.29,0,.57,0,.86-.02,1.15-.05,2.29-.17,3.42-.36,1.13-.19,2.24-.44,3.33-.77l.41-.12,.4-.13,.2-.07,.2-.07,.4-.14c.53-.2,1.05-.4,1.55-.64,.51-.22,1.01-.48,1.49-.73,.48-.27,.96-.54,1.42-.83,1.84-1.17,3.45-2.61,4.74-4.26,1.3-1.66,2.36-3.67,3.29-5.89,.94-2.22,1.76-4.66,2.66-7.22,.91-2.55,1.91-5.24,3.3-7.92,.7-1.34,1.5-2.68,2.44-3.96l.35-.48c.12-.16,.25-.31,.37-.47l.38-.47,.4-.45,.4-.45c.13-.15,.28-.29,.41-.44,.28-.29,.56-.58,.85-.85,1.16-1.1,2.42-2.09,3.73-2.97,1.31-.87,2.67-1.63,4.06-2.27,2.78-1.29,5.63-2.18,8.45-2.82,2.83-.64,5.64-1.05,8.4-1.33,2.77-.28,5.5-.45,8.19-.58l-.2-4.1c-2.65,.13-5.38,.29-8.18,.57-2.8,.28-5.68,.69-8.64,1.33-2.95,.64-5.99,1.54-9.02,2.88-1.51,.67-3.02,1.45-4.5,2.36-1.47,.91-2.91,1.96-4.25,3.15-1.35,1.18-2.6,2.5-3.73,3.91-1.13,1.41-2.09,2.88-2.92,4.34-.83,1.46-1.52,2.91-2.12,4.31-.6,1.4-1.12,2.76-1.6,4.07-.95,2.61-1.73,5-2.56,7.09-.41,1.05-.83,2.02-1.26,2.9-.43,.88-.88,1.67-1.35,2.37-.47,.7-.94,1.29-1.48,1.87-.55,.57-1.16,1.11-1.82,1.62-.67,.5-1.39,.96-2.16,1.38-.77,.42-1.6,.79-2.45,1.11-1.72,.64-3.58,1.09-5.48,1.31-.24,.03-.48,.05-.71,.07-.24,.02-.48,.04-.72,.05-.24,0-.48,.03-.72,.03h-1.48c-.12,0-.25,0-.38-.01l-.38-.02-.38-.02h-.19l-.19-.02-.76-.07c-4.09-.39-8.36-1.56-12.66-3.23-.54-.2-1.08-.43-1.62-.65-.27-.11-.54-.23-.81-.34-.27-.12-.54-.23-.81-.35-1.08-.48-2.18-.97-3.3-1.5-1.12-.53-2.26-1.08-3.43-1.64l-1.77-.85-.91-.43-.45-.21-.46-.21-.93-.43-.95-.43-.47-.21-.48-.21c-.32-.14-.64-.28-.97-.42-.66-.27-1.31-.55-1.99-.82-.67-.27-1.36-.52-2.05-.78-.34-.13-.7-.25-1.05-.37l-.53-.18c-.18-.06-.36-.12-.54-.17l-1.08-.34-1.11-.32-.56-.16-.58-.15c-.38-.1-.77-.19-1.16-.28-.78-.17-1.56-.33-2.35-.47-.79-.13-1.59-.25-2.4-.34-.4-.05-.81-.08-1.21-.12-.41-.03-.81-.06-1.23-.08-.82-.05-1.65-.06-2.48-.06-.84,0-1.68,.05-2.53,.11-1.7,.14-3.42,.39-5.15,.81-1.73,.41-3.47,.99-5.16,1.73-.85,.38-1.68,.8-2.5,1.26-.2,.12-.41,.24-.61,.36l-.3,.18-.3,.19c-.2,.13-.4,.26-.6,.39l-.59,.42c-.4,.28-.77,.58-1.15,.88-.19,.15-.37,.31-.55,.46-.18,.16-.36,.31-.54,.47-.7,.65-1.39,1.32-2.01,2.03-1.26,1.41-2.36,2.93-3.29,4.52-.93,1.59-1.7,3.25-2.31,4.94-1.21,3.4-1.83,6.95-1.82,10.55,0,.9,.05,1.8,.12,2.7,.02,.23,.05,.45,.07,.68,.03,.23,.05,.45,.08,.68l.1,.68,.05,.34,.06,.34,.13,.67c.05,.22,.1,.45,.15,.67,.05,.22,.1,.45,.16,.67l.18,.67,.09,.33,.1,.32,.21,.64c.07,.21,.15,.42,.22,.63,.08,.21,.15,.42,.23,.63,.64,1.67,1.42,3.27,2.31,4.78,.89,1.51,1.9,2.93,2.99,4.27,1.09,1.33,2.28,2.57,3.54,3.71,1.26,1.14,2.58,2.19,3.98,3.14,1.39,.95,2.84,1.8,4.35,2.55,1.51,.75,3.06,1.4,4.67,1.94l.3,.1,.3,.1,.61,.19c.1,.03,.21,.06,.32,.09l.33,.09,.33,.09,.33,.08c.88,.23,1.77,.4,2.66,.54,1.78,.28,3.58,.4,5.42,.36,.92-.02,1.85-.1,2.79-.21,.94-.12,1.89-.29,2.85-.52,.96-.23,1.93-.53,2.9-.89,.97-.37,1.95-.82,2.91-1.35,.24-.14,.48-.28,.72-.42,.24-.15,.48-.3,.71-.46l.18-.12,.18-.12,.35-.25,.35-.26,.34-.27,.34-.28c.11-.09,.22-.19,.33-.29,.22-.2,.44-.4,.65-.6,.42-.42,.84-.85,1.22-1.31l.29-.35c.1-.12,.19-.24,.28-.36,.18-.24,.37-.48,.54-.73,.17-.25,.33-.5,.5-.76,.16-.25,.31-.52,.46-.78l.22-.39,.2-.4c.13-.27,.26-.53,.38-.81,.23-.55,.46-1.11,.64-1.69,.2-.57,.34-1.15,.49-1.74,.06-.29,.12-.59,.17-.88,.03-.15,.06-.29,.08-.44l.06-.44,.05-.44,.02-.22,.02-.22c.02-.29,.04-.58,.05-.87,.01-.29,0-.57,0-.86,0-.14,0-.29,0-.43l-.02-.42-.02-.42c0-.14-.02-.28-.03-.42-.03-.27-.06-.55-.09-.82-.01-.14-.04-.27-.06-.4l-.07-.4-.07-.4c-.02-.13-.05-.26-.08-.39-.06-.26-.11-.52-.17-.77l-.2-.75c-.07-.25-.14-.49-.22-.73l-.12-.36-.06-.18-.06-.17-.26-.7c-.09-.23-.18-.45-.27-.68-.18-.45-.39-.88-.59-1.31-.1-.21-.21-.42-.32-.63l-.16-.31-.17-.3-.34-.61-.35-.59c-.12-.2-.24-.39-.36-.58-.12-.19-.24-.38-.37-.57-.25-.37-.51-.74-.77-1.09-.52-.72-1.08-1.39-1.65-2.06Z" fill="#2a71db"/></g><g id="change2_1"><path d="M215.47,60.97c-.51-.58-1.04-1.14-1.59-1.68-.55-.53-1.13-1.04-1.73-1.53l-.45-.36c-.08-.06-.15-.12-.23-.17l-.23-.17c-.3-.22-.6-.45-.9-.67l-.92-.64c-.15-.11-.31-.21-.47-.31l-.47-.3c-.16-.1-.31-.2-.47-.3l-.48-.29c-.32-.19-.64-.39-.97-.56l-.98-.54-.99-.51c-1.33-.66-2.69-1.27-4.06-1.82-1.38-.54-2.78-1.02-4.19-1.45-1.41-.43-2.84-.79-4.28-1.12l-1.08-.23-1.08-.21-.54-.1-.54-.09-1.09-.17-1.09-.15-.55-.07-.55-.06-1.1-.12-1.1-.09-.55-.04-.55-.03-1.1-.06-1.1-.03c-.18,0-.37-.01-.55-.01h-.55c-.37,0-.73,0-1.1,0l-1.1,.03c-.18,0-.37,0-.55,.01l-.55,.03c-.37,.02-.73,.03-1.1,.06-2.93,.19-5.85,.56-8.73,1.14-5.76,1.14-11.37,3.08-16.61,5.73l-.98,.51c-.33,.17-.65,.35-.97,.53-.65,.35-1.28,.73-1.91,1.1-1.26,.76-2.5,1.55-3.7,2.4-1.21,.84-2.38,1.72-3.51,2.62-1.14,.9-2.26,1.82-3.36,2.74-2.2,1.85-4.34,3.73-6.49,5.54-2.15,1.81-4.32,3.57-6.58,5.15-.56,.4-1.13,.77-1.7,1.15l-.87,.54c-.14,.09-.29,.18-.44,.26l-.44,.26c-1.17,.68-2.36,1.31-3.59,1.85-1.22,.53-2.47,.99-3.74,1.35l-.48,.13-.24,.06c-.08,.02-.16,.04-.24,.06l-.96,.21c-.08,.02-.16,.03-.24,.05l-.24,.04-.48,.08c-.32,.06-.65,.09-.97,.13l-.49,.06c-.16,.02-.32,.02-.49,.03l-.49,.03c-.16,0-.32,.02-.49,.02h-.97c-.32-.01-.65-.03-.97-.05-1.29-.09-2.58-.3-3.85-.61l-.95-.26c-.31-.09-.62-.2-.93-.3-.31-.09-.62-.22-.92-.34l-.46-.18-.45-.2-.45-.2c-.08-.03-.15-.07-.23-.1l-.22-.11c-.29-.15-.59-.29-.89-.44l-.87-.48c-.15-.08-.29-.17-.43-.25l-.42-.26c-1.12-.71-2.21-1.48-3.23-2.33-1.02-.86-1.99-1.78-2.91-2.75l-.67-.74c-.22-.25-.43-.51-.65-.77-.22-.25-.42-.52-.63-.79l-.31-.4c-.1-.13-.2-.27-.3-.41l-.29-.41c-.1-.14-.2-.27-.29-.41l-.56-.84c-.18-.28-.35-.57-.53-.86-.18-.28-.34-.58-.5-.87-.16-.29-.33-.58-.48-.88-.15-.3-.31-.59-.45-.9l-.42-.91c-.07-.15-.13-.31-.2-.46l-.19-.46c-.06-.15-.13-.31-.19-.46l-.17-.47c-.11-.31-.24-.62-.33-.94-.1-.32-.21-.63-.31-.95l-.27-.96c-.17-.64-.32-1.29-.45-1.95-.13-.65-.23-1.31-.32-1.97-.04-.33-.08-.66-.11-.99l-.04-.5-.03-.5-.02-.25v-.25l-.03-.5v-.5c0-.17-.01-.33,0-.5v-.5l.03-.5c0-.33,.04-.66,.06-.99,.06-.66,.13-1.31,.24-1.96,.2-1.3,.52-2.56,.94-3.79,.22-.61,.45-1.21,.73-1.79,.13-.29,.28-.57,.42-.86,.07-.14,.16-.28,.23-.42l.12-.21c.04-.07,.08-.14,.12-.2l.25-.41,.26-.39,.13-.2,.14-.19,.28-.38,.3-.37,.15-.18,.16-.18,.31-.35,.33-.34c1.75-1.8,3.97-3.13,6.39-3.97,2.42-.83,5.03-1.17,7.6-.99,.64,.04,1.28,.12,1.91,.23,.63,.11,1.26,.25,1.88,.43,1.25,.34,2.47,.8,3.64,1.36,1.17,.57,2.3,1.24,3.37,2l.4,.29c.13,.1,.27,.19,.4,.29l.77,.62,.75,.65c.06,.05,.12,.11,.19,.16l.18,.17,.36,.34c.95,.92,1.83,1.91,2.64,2.96l.59,.8c.05,.07,.1,.13,.15,.2l.14,.21,.28,.41c.37,.55,.71,1.11,1.03,1.69,1.27,2.3,2.2,4.8,2.61,7.34,.2,1.27,.29,2.55,.21,3.81-.07,1.26-.29,2.49-.68,3.67-.1,.29-.2,.58-.32,.87l-.09,.22-.04,.11-.05,.11-.19,.42c-.28,.56-.57,1.11-.92,1.63l-.13,.2-.14,.19-.27,.38c-.2,.25-.38,.5-.59,.74-.4,.49-.84,.95-1.3,1.4l-.35,.33c-.12,.11-.24,.21-.36,.32l-.18,.16-.19,.16-.38,.31-.39,.3-.19,.15-.2,.14-.4,.29-.41,.28c-.13,.09-.27,.18-.41,.27-.14,.09-.28,.18-.42,.27-.28,.17-.56,.35-.86,.51-.57,.34-1.17,.65-1.77,.96-1.21,.6-2.45,1.16-3.72,1.65-1.27,.5-2.57,.95-3.89,1.37-4.89,1.53-9.89,2.72-14.95,3.58-.63,.1-1.27,.21-1.9,.3l-1.9,.27-1.91,.24c-.64,.07-1.27,.14-1.91,.2-2.55,.25-5.11,.42-7.67,.49-.64,.02-1.28,.04-1.92,.04-.64,0-1.28,.02-1.92,.01-1.28,0-2.55-.04-3.83-.1-2.55-.12-5.09-.35-7.6-.71-5.02-.72-9.96-1.96-14.57-3.92-.15-.06-.29-.12-.43-.19l-.43-.19-.43-.19c-.14-.06-.28-.13-.42-.2-.28-.14-.56-.27-.84-.41l-.83-.43c-.28-.14-.55-.3-.82-.45-.27-.15-.55-.3-.81-.46l-.8-.48-.79-.5c-2.08-1.35-4.03-2.89-5.79-4.62-.11-.11-.22-.21-.33-.32l-.32-.33c-.21-.22-.43-.44-.64-.67l-.62-.69-.16-.17-.15-.18-.3-.36-.3-.36c-.1-.12-.19-.24-.29-.36l-.58-.73c-.37-.5-.75-.99-1.09-1.51l-.27-.38-.13-.19-.13-.2-.51-.78c-.17-.26-.33-.53-.49-.8l-.24-.4-.23-.41c-.63-1.08-1.21-2.2-1.76-3.33l-.41-.85-.39-.86c-.13-.29-.25-.58-.38-.87-.12-.29-.25-.58-.36-.87-.48-1.17-.91-2.36-1.33-3.56-.41-1.2-.79-2.42-1.15-3.64-.35-1.23-.69-2.46-.99-3.7l-.12-.47-.11-.47-.22-.94c-.14-.63-.28-1.25-.41-1.88-.27-1.26-.52-2.52-.75-3.79l-.17-.95-.17-.95-.16-.95-.08-.48-.04-.24-.03-.2c0-.07-.02-.11-.02-.18,0-.06-.01-.12-.02-.19,0-.12,0-.25,0-.37,.03-.25,.11-.49,.29-.67,.18-.18,.46-.21,.7-.15,.12,.03,.24,.09,.32,.18,.09,.09,.12,.22,.09,.35l-3.66-.09v-.08c-.06-.03-.25-.06-.37-.09-.08-.03-.02-.06-.04-.08v-.08c-.01-.11-.04-.2-.07-.28-.07-.16-.17-.25-.29-.3-.11-.05-.24-.05-.37,0-.12,.04-.25,.13-.35,.27-.2,.29-.31,.68-.34,1.07-.02,.2-.02,.39,0,.59,0,.1,.01,.2,.02,.3l.02,.15,.02,.15c.01,.1,.03,.2,.04,.29l.04,.25,.08,.48,.16,.96c.11,.64,.22,1.28,.34,1.91,.11,.64,.24,1.27,.36,1.91,.13,.64,.25,1.27,.39,1.91,.26,1.27,.56,2.54,.87,3.81,.31,1.27,.65,2.53,1,3.79,.09,.31,.18,.63,.28,.94,.09,.31,.19,.63,.29,.94l.29,.94,.31,.93,.16,.47,.16,.47c.11,.31,.22,.62,.33,.93,.23,.62,.46,1.24,.71,1.85,.24,.61,.5,1.22,.76,1.83,.13,.3,.27,.6,.4,.91,.13,.3,.27,.6,.41,.9l.43,.9,.45,.89c.08,.15,.15,.3,.23,.44l.24,.44c.16,.29,.31,.59,.48,.88,.65,1.16,1.35,2.3,2.09,3.41l.57,.83c.1,.14,.19,.28,.29,.41l.3,.4c.2,.27,.39,.54,.6,.81l.62,.79,.16,.2,.16,.19,.32,.39c.22,.26,.43,.52,.66,.76l.68,.75c.23,.25,.47,.49,.7,.73l.35,.36,.36,.35c.24,.23,.48,.47,.73,.7,.5,.45,1,.91,1.52,1.33,.51,.44,1.05,.85,1.58,1.26l.81,.6c.14,.1,.27,.2,.41,.3l.42,.28,.42,.28c.14,.1,.28,.19,.42,.28l.85,.54c.28,.18,.58,.34,.86,.52l.43,.26,.44,.24c1.17,.66,2.37,1.25,3.58,1.81l.91,.41,.92,.38c.15,.06,.31,.13,.46,.19l.47,.18c.31,.12,.62,.24,.93,.35,1.25,.46,2.51,.86,3.78,1.24,1.27,.36,2.56,.69,3.84,.98,.32,.07,.65,.14,.97,.21l.48,.1,.49,.09,.97,.18,.97,.16c5.2,.85,10.45,1.16,15.67,1.07,2.61-.04,5.21-.16,7.81-.37,2.6-.21,5.19-.5,7.77-.89,5.15-.77,10.26-1.89,15.27-3.33l1.87-.56c.62-.19,1.25-.39,1.88-.6,1.25-.42,2.5-.88,3.73-1.39,1.23-.51,2.45-1.07,3.65-1.7,.6-.31,1.19-.64,1.78-.99,.58-.35,1.16-.71,1.73-1.1,1.13-.78,2.23-1.63,3.25-2.59,1.02-.96,1.97-2.02,2.79-3.19,.1-.15,.21-.29,.31-.44l.29-.45,.14-.23,.14-.23,.27-.47c.09-.16,.17-.32,.25-.48,.08-.16,.17-.32,.24-.48,.15-.33,.31-.65,.44-.99l.2-.5,.18-.51c.06-.17,.11-.34,.17-.52l.08-.26,.07-.26c.1-.35,.18-.7,.26-1.05,.07-.35,.14-.71,.19-1.06,.22-1.42,.26-2.85,.17-4.26-.05-.71-.13-1.41-.24-2.1-.11-.69-.25-1.38-.42-2.05-.68-2.71-1.78-5.26-3.2-7.62-.35-.59-.74-1.16-1.12-1.72-.2-.28-.4-.55-.6-.83-.1-.14-.2-.28-.31-.41l-.32-.4-.32-.4-.16-.2-.17-.19-.68-.77c-.23-.25-.47-.5-.71-.75-.12-.12-.23-.25-.36-.37l-.37-.36-.37-.36-.19-.18-.19-.17-.78-.68c-.27-.22-.54-.43-.8-.65-.14-.11-.27-.22-.41-.32l-.42-.3-.42-.3c-.07-.05-.14-.1-.21-.15l-.22-.14-.87-.57c-.6-.35-1.18-.71-1.81-1.02-.61-.33-1.25-.61-1.88-.89-.65-.25-1.29-.52-1.96-.73-.33-.11-.66-.22-1-.31-.34-.09-.67-.18-1.01-.27-.68-.16-1.38-.29-2.07-.39-2.78-.4-5.62-.29-8.36,.3-2.74,.6-5.4,1.7-7.75,3.33-.59,.4-1.15,.85-1.69,1.31-.55,.46-1.05,.98-1.54,1.49-.97,1.05-1.82,2.2-2.54,3.42-1.45,2.44-2.39,5.12-2.9,7.83-.52,2.72-.62,5.48-.42,8.19,.11,1.36,.3,2.71,.56,4.04,.06,.33,.14,.67,.21,1,.08,.33,.16,.66,.24,.99,.19,.66,.36,1.32,.58,1.96l.16,.49c.03,.08,.05,.16,.08,.24l.09,.24,.35,.96c.12,.32,.26,.63,.39,.94l.2,.47,.21,.46c.55,1.24,1.2,2.43,1.88,3.6l.59,.96,.62,.94,.16,.23,.16,.23,.33,.46,.33,.46,.35,.45,.35,.45,.17,.22,.18,.22,.73,.86,.76,.84,.19,.21,.2,.2,.4,.4,.4,.4,.41,.39,.41,.39,.21,.19,.21,.19,.85,.74,.88,.71c1.19,.93,2.45,1.78,3.76,2.55,1.32,.76,2.7,1.43,4.12,1.99l.54,.21,.27,.1c.09,.03,.18,.06,.27,.09l1.09,.36,1.11,.3c.09,.02,.18,.05,.28,.07l.28,.06,.56,.12c1.51,.31,3.05,.51,4.6,.55,1.55,.04,3.1-.07,4.62-.29l1.14-.19,1.12-.24c.09-.02,.19-.04,.28-.06l.28-.07,.55-.15c.18-.05,.37-.1,.55-.15l.54-.17c1.45-.46,2.87-1.02,4.22-1.67,1.36-.65,2.67-1.37,3.94-2.15,1.27-.78,2.48-1.61,3.67-2.47,1.19-.86,2.34-1.75,3.47-2.66,1.13-.91,2.24-1.83,3.33-2.76,2.19-1.86,4.32-3.73,6.48-5.53,1.08-.9,2.17-1.78,3.26-2.63,.55-.42,1.1-.84,1.66-1.24l.42-.31,.42-.29,.85-.59,.86-.57,.43-.28,.44-.27,.88-.54,.89-.52c.15-.09,.3-.17,.45-.26l.45-.25,.9-.49,.92-.47c.15-.08,.3-.16,.46-.23l.46-.22c4.94-2.42,10.23-4.13,15.64-5.13l1.02-.18,.25-.04,.26-.04,.51-.08c.68-.11,1.36-.19,2.05-.27,1.37-.15,2.74-.28,4.11-.33,2.75-.14,5.51-.06,8.24,.18,.34,.03,.68,.07,1.03,.11l.51,.05c.17,.02,.34,.04,.51,.07l1.02,.14c.34,.05,.68,.11,1.02,.16l.51,.08c.17,.03,.34,.06,.51,.09l1.01,.19c.67,.14,1.34,.28,2.01,.45,1.33,.32,2.66,.68,3.96,1.11,.16,.05,.33,.1,.49,.16l.48,.17c.32,.11,.65,.22,.97,.34l.96,.36,.95,.39c1.26,.53,2.49,1.1,3.69,1.74,1.2,.64,2.36,1.33,3.49,2.08l.83,.57c.14,.09,.28,.19,.41,.3l.41,.3,.41,.3,.38,.3c.13,.1,.25,.21,.38,.31,.13,.1,.25,.21,.37,.32,.98,.86,1.89,1.81,2.7,2.83,.81,1.01,1.53,2.1,2.12,3.22,.58,1.13,1.04,2.3,1.3,3.48,.07,.3,.11,.59,.16,.89l.05,.44c.01,.07,.01,.15,.02,.22v.22c.04,.58,.02,1.16-.07,1.73-.09,.56-.23,1.11-.42,1.64l-.16,.39c-.06,.13-.12,.26-.18,.38-.03,.06-.06,.13-.09,.19l-.11,.18-.1,.18c-.03,.06-.08,.12-.11,.18-.6,.96-1.43,1.76-2.4,2.41-.12,.08-.24,.16-.37,.24l-.38,.22-.4,.2c-.13,.07-.27,.13-.41,.19-.55,.24-1.13,.45-1.73,.61-.6,.17-1.21,.29-1.84,.38-.31,.05-.63,.08-.94,.11l-.48,.03c-.16,.01-.32,.01-.48,.02-.64,.02-1.28,.01-1.92-.03-.64-.05-1.28-.12-1.92-.23-.64-.11-1.26-.25-1.88-.42-.16-.04-.31-.08-.46-.13l-.47-.15c-.16-.05-.31-.1-.47-.16-.16-.05-.31-.1-.47-.16-1.24-.46-2.45-.99-3.6-1.63l-.43-.24-.43-.25-.21-.13-.21-.13-.42-.26c-.55-.36-1.1-.74-1.62-1.14-1.05-.79-2.04-1.68-2.95-2.62-.12-.12-.22-.24-.34-.36-.11-.12-.23-.24-.33-.36-.21-.25-.43-.49-.64-.75-.42-.5-.8-1.03-1.18-1.57-.73-1.08-1.38-2.21-1.91-3.4l-.2-.44-.18-.45c-.03-.08-.06-.15-.09-.23l-.08-.23-.16-.46-.15-.46-.07-.23-.06-.23-.13-.46-.11-.47-.06-.23-.05-.24-.09-.47-.07-.48c-.03-.16-.05-.32-.07-.48l-.05-.48c-.02-.16-.02-.32-.04-.48-.03-.32-.03-.64-.05-.97,0-.64,0-1.29,.05-1.93,.04-.64,.13-1.29,.23-1.92,.22-1.27,.55-2.53,1.01-3.73l.17-.45,.19-.44,.1-.22,.1-.22,.21-.44,.22-.43,.11-.21,.12-.21,.24-.42,.25-.41,.13-.2,.14-.2,.27-.39,.29-.38,.14-.19,.15-.18,.3-.37,.32-.35,.16-.18,.16-.17,.33-.34,.34-.32,.17-.16c.06-.05,.12-.1,.18-.15l.36-.31,.37-.29,.19-.15c.06-.05,.13-.09,.19-.14l.38-.27c.26-.17,.53-.35,.8-.51,.27-.17,.55-.31,.83-.47,.28-.14,.57-.29,.86-.42,.58-.26,1.17-.5,1.78-.7,2.44-.82,5.07-1.15,7.72-1.11,2.65,.05,5.33,.46,7.92,1.16,1.31,.36,2.61,.78,3.9,1.24,1.29,.47,2.57,.99,3.85,1.54,4.77,2.05,9.46,4.57,14.45,6.69,1.24,.54,2.51,1.03,3.78,1.52,1.28,.47,2.56,.92,3.87,1.32,1.3,.41,2.63,.77,3.97,1.1l1.01,.23,.5,.11,.51,.1,1.02,.19c.34,.06,.68,.11,1.03,.16,.68,.12,1.37,.19,2.06,.28l.26,.03,.26,.02,.52,.04,.52,.04c.17,.02,.35,.03,.52,.04,.7,.03,1.39,.08,2.09,.07,.35,0,.7,0,1.05,0,.35-.01,.7-.01,1.06-.03,1.41-.07,2.81-.21,4.2-.44,1.39-.23,2.77-.54,4.12-.95l.51-.15,.5-.16,.25-.08,.25-.09,.5-.18c.66-.25,1.32-.51,1.97-.81,.65-.29,1.29-.61,1.92-.94,.63-.34,1.25-.7,1.85-1.09,2.42-1.54,4.61-3.48,6.4-5.77,.89-1.14,1.67-2.36,2.35-3.6,.68-1.24,1.28-2.51,1.82-3.78,1.07-2.54,1.92-5.1,2.8-7.58,.88-2.47,1.79-4.88,2.93-7.08,.57-1.1,1.21-2.15,1.92-3.13l.27-.36c.09-.12,.19-.24,.28-.35l.28-.35,.3-.34,.3-.34c.1-.11,.21-.22,.31-.33,.21-.21,.41-.44,.64-.64,1.74-1.66,3.8-3,6.04-4.04,2.24-1.04,4.65-1.8,7.13-2.37,2.48-.56,5.03-.94,7.61-1.2,2.58-.26,5.19-.42,7.83-.55l-.2-4.1c-2.59,.12-5.21,.28-7.83,.54-2.62,.26-5.26,.64-7.88,1.21-2.62,.57-5.24,1.36-7.76,2.47-2.52,1.11-4.95,2.56-7.06,4.43-1.06,.93-2.04,1.96-2.92,3.06-.88,1.1-1.65,2.28-2.33,3.48-.68,1.2-1.27,2.43-1.81,3.67-.53,1.24-1.01,2.48-1.46,3.71-.9,2.47-1.7,4.91-2.61,7.24-.46,1.17-.94,2.3-1.47,3.4-.54,1.09-1.12,2.14-1.78,3.13-.66,.99-1.38,1.9-2.19,2.75-.81,.85-1.69,1.63-2.64,2.34-.95,.71-1.95,1.35-3,1.92-1.05,.57-2.15,1.06-3.27,1.48-2.25,.84-4.62,1.4-7.03,1.68-1.2,.14-2.41,.21-3.63,.21h-.92c-.15,0-.31-.02-.46-.02l-.46-.02-.46-.02h-.23l-.23-.03-.92-.08c-.31-.02-.61-.06-.92-.1l-.92-.11-.91-.14-.46-.07c-.15-.02-.3-.06-.46-.08l-.91-.17c-.15-.03-.3-.06-.45-.1l-.45-.1c-.3-.07-.61-.13-.91-.21l-.9-.23c-2.41-.62-4.79-1.43-7.13-2.33-.59-.22-1.17-.47-1.76-.7-.29-.12-.58-.25-.87-.37-.29-.12-.58-.24-.87-.37-1.16-.51-2.31-1.03-3.47-1.58-2.31-1.09-4.63-2.23-7-3.33-1.18-.55-2.38-1.09-3.6-1.61-.61-.25-1.22-.51-1.84-.75-.61-.25-1.24-.48-1.87-.71-.31-.12-.63-.22-.95-.33-.32-.11-.63-.22-.95-.32l-.96-.3-.97-.28c-1.3-.37-2.64-.67-3.98-.9-2.69-.45-5.45-.63-8.22-.41-2.77,.22-5.55,.84-8.16,2-.65,.29-1.29,.61-1.91,.96-.16,.09-.31,.18-.46,.27l-.23,.14-.23,.15c-.15,.1-.3,.19-.45,.29l-.44,.31c-.3,.2-.58,.43-.86,.66-.14,.11-.28,.23-.41,.35l-.41,.35c-.53,.49-1.04,.99-1.52,1.53-1.92,2.14-3.35,4.65-4.31,7.3-.95,2.66-1.44,5.47-1.43,8.29,0,.71,.04,1.41,.1,2.12,.02,.18,.04,.35,.06,.53,.02,.18,.04,.35,.06,.53l.08,.53,.04,.26,.05,.26,.1,.52c.03,.17,.08,.35,.12,.52,.04,.17,.08,.35,.13,.52l.14,.51,.07,.26,.08,.25,.16,.5c.05,.17,.12,.33,.18,.5,.06,.17,.12,.33,.18,.5,.51,1.31,1.12,2.58,1.83,3.79,.71,1.21,1.52,2.35,2.4,3.43,.88,1.08,1.85,2.08,2.88,3.01,1.03,.93,2.11,1.8,3.26,2.57,1.14,.78,2.34,1.48,3.58,2.1,1.24,.62,2.52,1.15,3.83,1.59l.25,.08,.25,.08,.5,.15c.16,.05,.34,.1,.51,.15l.26,.07,.26,.06c.69,.18,1.38,.31,2.08,.42,1.39,.22,2.81,.31,4.23,.28,.71-.02,1.42-.07,2.13-.16,.71-.09,1.42-.22,2.13-.39,.71-.17,1.41-.39,2.1-.64,.69-.26,1.37-.58,2.03-.94l.49-.28,.48-.31,.12-.08,.12-.08,.23-.17,.23-.17,.22-.18,.22-.18c.07-.06,.15-.12,.22-.19l.43-.39c.27-.28,.55-.55,.79-.85l.19-.22c.06-.07,.12-.15,.18-.23,.12-.16,.24-.31,.35-.47l.32-.49c.11-.16,.2-.34,.29-.5l.14-.25,.13-.26c.08-.17,.17-.35,.25-.52,.15-.36,.3-.72,.41-1.09,.13-.37,.22-.75,.32-1.12,.04-.19,.07-.38,.11-.57,.02-.1,.04-.19,.05-.29l.04-.29,.04-.29,.02-.14v-.14l.04-.58c0-.19,0-.38,0-.57,0-.1,0-.19,0-.29l-.02-.28c-.03-.76-.14-1.5-.29-2.23-.04-.18-.08-.36-.12-.54l-.14-.53c-.05-.18-.1-.35-.16-.53-.06-.17-.11-.35-.17-.52l-.19-.51c-.06-.17-.14-.34-.2-.5-.13-.34-.29-.66-.44-.99l-.24-.48-.12-.24-.13-.23-.26-.47-.27-.46c-.09-.15-.19-.3-.28-.45-.1-.15-.19-.3-.29-.44-.2-.29-.4-.58-.61-.86-.41-.57-.86-1.11-1.31-1.64Z" fill="#d34089"/></g><g id="change3_1"><path d="M210.49,65.3c-.38-.44-.78-.86-1.2-1.27-.42-.4-.86-.79-1.3-1.16l-.34-.27-.08-.07-.09-.07-.19-.14c-.25-.19-.5-.38-.76-.56l-.78-.54c-.13-.09-.26-.17-.4-.26l-.4-.26c-.13-.08-.27-.17-.4-.26l-.41-.24c-.27-.16-.54-.33-.82-.48l-.84-.46-.85-.44c-1.15-.57-2.32-1.1-3.52-1.57-1.2-.47-2.43-.9-3.68-1.28-1.25-.38-2.52-.7-3.8-.99l-.96-.21-.97-.18-.48-.09-.49-.08-.97-.16-.98-.13-.49-.07-.49-.05-.98-.1-.98-.08-.49-.04-.49-.03-.99-.05-.99-.03c-.16,0-.33-.01-.49-.01h-1.48l-.99,.02c-.16,0-.33,0-.49,.01l-.49,.02c-.33,.02-.66,.03-.99,.05-2.63,.17-5.26,.5-7.85,1.03-5.18,1.03-10.22,2.77-14.92,5.15l-.88,.45c-.29,.15-.58,.32-.87,.47-.58,.31-1.14,.65-1.71,.98-1.12,.68-2.24,1.38-3.31,2.14-1.08,.75-2.15,1.55-3.21,2.4-1.07,.84-2.13,1.71-3.19,2.61-1.06,.9-2.13,1.81-3.21,2.74-1.08,.93-2.17,1.87-3.28,2.8-2.23,1.87-4.53,3.75-7.04,5.5-.62,.44-1.27,.87-1.91,1.29l-.99,.62c-.16,.1-.33,.2-.5,.3l-.51,.3c-1.36,.79-2.77,1.53-4.25,2.19-1.48,.65-3.03,1.21-4.62,1.66l-.6,.16-.3,.08c-.1,.03-.2,.05-.3,.07l-1.22,.27c-.1,.02-.2,.04-.31,.06l-.31,.05-.62,.1c-.41,.08-.83,.11-1.24,.16l-.62,.07c-.21,.02-.42,.03-.64,.04l-.64,.04c-.21,.01-.42,.03-.64,.02h-1.28c-.42-.01-.85-.04-1.27-.06-1.69-.12-3.37-.39-5-.8l-1.21-.33c-.4-.12-.8-.26-1.19-.38-.4-.12-.78-.28-1.17-.43l-.58-.22-.57-.25-.57-.25c-.09-.04-.19-.08-.28-.13l-.28-.14c-.37-.18-.74-.36-1.11-.55l-1.08-.6c-.18-.1-.35-.21-.53-.31l-.52-.32c-1.39-.87-2.71-1.82-3.96-2.86-1.24-1.04-2.41-2.15-3.52-3.32l-.81-.89c-.26-.3-.52-.61-.78-.92-.26-.3-.5-.62-.75-.94l-.37-.48c-.12-.16-.24-.32-.36-.49l-.35-.49c-.12-.16-.24-.32-.35-.49l-.66-1c-.22-.34-.42-.68-.63-1.02-.21-.34-.41-.69-.6-1.04-.2-.35-.4-.7-.57-1.06-.18-.36-.37-.71-.54-1.08l-.51-1.1c-.09-.18-.16-.37-.24-.56l-.23-.56c-.08-.19-.16-.37-.23-.56l-.21-.57c-.14-.38-.28-.76-.4-1.14-.12-.39-.25-.77-.37-1.16l-.33-1.17c-.21-.78-.39-1.57-.54-2.37-.16-.79-.28-1.59-.39-2.4-.05-.4-.1-.8-.13-1.21l-.05-.61-.04-.61-.02-.3v-.31l-.04-.61v-.61c-.01-.2-.01-.41,0-.61v-.61c.01-.2,.02-.41,.03-.62,.01-.41,.05-.82,.08-1.23,.07-.82,.16-1.65,.3-2.47,.26-1.65,.67-3.29,1.23-4.91,.29-.81,.6-1.61,.97-2.4,.18-.4,.38-.78,.58-1.17,.1-.19,.21-.38,.32-.58l.16-.29c.05-.1,.11-.19,.17-.28l.35-.56c.12-.18,.25-.37,.37-.55l.19-.27,.2-.27,.4-.54,.42-.52,.21-.26,.22-.25,.44-.5,.47-.48c.63-.64,1.3-1.25,2-1.8,.7-.56,1.43-1.07,2.19-1.53,.19-.11,.38-.23,.57-.34l.58-.32,.59-.3c.2-.1,.4-.19,.59-.29,.79-.37,1.61-.7,2.43-.99,3.3-1.13,6.76-1.57,10.2-1.34,.86,.06,1.72,.16,2.57,.3,.85,.14,1.71,.33,2.52,.57,1.65,.45,3.25,1.05,4.77,1.79,1.52,.74,2.96,1.6,4.32,2.56l.51,.37c.17,.12,.34,.24,.5,.37l.97,.77c.31,.27,.62,.54,.93,.81,.08,.07,.16,.14,.23,.21l.22,.21,.45,.43c1.18,1.15,2.28,2.38,3.28,3.68l.73,.99c.06,.08,.12,.16,.18,.25l.17,.26,.34,.51c.11,.17,.23,.34,.34,.51l.33,.53,.32,.54c.1,.18,.2,.36,.31,.54,.8,1.45,1.5,2.97,2.07,4.55,.57,1.58,1.01,3.23,1.29,4.93,.27,1.7,.4,3.46,.29,5.24-.1,1.78-.42,3.59-.99,5.33-.15,.44-.3,.87-.47,1.29l-.13,.32-.06,.16-.07,.16-.29,.62c-.4,.82-.84,1.62-1.33,2.36l-.18,.28-.19,.28c-.13,.18-.26,.37-.39,.55-.27,.35-.54,.71-.82,1.04-.56,.68-1.16,1.31-1.78,1.92l-.47,.44c-.16,.15-.32,.28-.48,.43l-.24,.21-.24,.2-.49,.4-.5,.39-.25,.19-.25,.18c-.17,.12-.34,.25-.51,.37l-.51,.35c-.17,.12-.34,.23-.51,.34-.17,.11-.34,.22-.52,.33-.35,.21-.69,.43-1.04,.63-.7,.41-1.4,.78-2.11,1.15-1.42,.71-2.85,1.35-4.29,1.91-1.44,.57-2.88,1.06-4.32,1.52-5.19,1.62-10.48,2.88-15.83,3.79-.67,.11-1.34,.22-2.01,.32l-2.02,.29-2.02,.25c-.67,.08-1.35,.14-2.02,.22-2.7,.27-5.41,.44-8.13,.52-.68,.02-1.36,.04-2.04,.04h-2.04c-1.37,0-2.73-.03-4.1-.09-2.74-.13-5.49-.38-8.23-.77-1.37-.2-2.74-.43-4.11-.7-1.37-.28-2.73-.59-4.09-.95-1.36-.36-2.71-.76-4.05-1.22-.34-.11-.67-.23-1-.35l-.5-.18-.5-.19c-.33-.13-.66-.25-.99-.39l-.99-.41c-.16-.07-.33-.14-.49-.21l-.49-.22-.49-.22c-.16-.07-.32-.15-.49-.23-.32-.16-.65-.31-.97-.47l-.96-.49c-.32-.16-.63-.34-.95-.51-.32-.17-.63-.35-.94-.53l-.93-.55-.92-.58c-2.43-1.58-4.73-3.4-6.82-5.44-.13-.13-.26-.25-.39-.38l-.38-.39c-.25-.26-.51-.52-.75-.79l-.73-.81-.18-.2-.18-.21-.35-.42-.35-.42c-.12-.14-.23-.28-.34-.42l-.67-.85c-.43-.58-.87-1.16-1.27-1.75l-.31-.44-.15-.22-.15-.23-.59-.9c-.19-.3-.37-.61-.56-.91l-.28-.46-.27-.46c-.72-1.23-1.37-2.49-1.99-3.76l-.45-.95-.43-.96c-.15-.32-.28-.64-.42-.96-.13-.32-.28-.64-.4-.97-.53-1.29-1-2.6-1.46-3.9-.44-1.31-.86-2.62-1.24-3.94-.38-1.32-.74-2.64-1.06-3.96l-.12-.5-.12-.5-.23-.99c-.15-.66-.3-1.32-.44-1.98-.28-1.32-.54-2.64-.79-3.96l-.18-.99-.17-.99-.17-.99-.08-.49-.04-.25-.02-.15-.03-.18c-.02-.11-.04-.27-.05-.39-.01-.12-.02-.25-.03-.37-.02-.25-.02-.5-.01-.75,.02-.49,.11-.99,.26-1.38,.08-.19,.17-.32,.26-.39,.09-.07,.17-.08,.24-.04,.07,.05,.12,.15,.15,.35,.01,.1,.02,.23,.01,.37v.16s-.07,.03,.04,.06l.47,.07c.13,.02,.36,.05,.42,.07v.1l-4.11-.1v-.14c-.31-.06-1.08-.14-1.61-.21-.34-.06-.08-.1-.16-.16l.02-.15c.03-.19,.06-.36,.08-.5,.05-.27,.09-.41,.1-.47,.01-.06,0-.03-.01,.06-.02,.09-.06,.26-.1,.5-.09,.5-.16,1.13-.17,1.77,0,.32,0,.64,.02,.96,.01,.16,.02,.32,.04,.48l.03,.24,.03,.27c.02,.17,.05,.32,.07,.45l.05,.28,.08,.49,.17,.99c.12,.66,.23,1.32,.35,1.98,.12,.66,.25,1.33,.38,1.99,.14,.67,.26,1.33,.41,2,.28,1.33,.59,2.67,.91,4.01,.33,1.34,.69,2.69,1.07,4.03,.09,.34,.2,.67,.3,1.01,.1,.34,.2,.67,.31,1.01l.32,1.01,.34,1.01,.17,.51,.18,.51c.12,.34,.24,.67,.36,1.01,.25,.67,.5,1.35,.77,2.02,.14,.34,.26,.67,.41,1.01l.42,1.01c.14,.33,.3,.67,.44,1,.15,.33,.3,.67,.46,1l.48,1,.5,.99c.08,.17,.17,.33,.25,.5l.26,.49c.18,.33,.35,.66,.54,.98l.56,.98,.14,.24,.15,.24,.29,.48c.39,.65,.81,1.28,1.22,1.92l.65,.94c.11,.16,.22,.31,.33,.47l.34,.46c.23,.31,.45,.62,.69,.92l.72,.91,.18,.23,.19,.22,.37,.44c.25,.3,.5,.59,.76,.88l.78,.87c.27,.28,.54,.56,.81,.85l.41,.42,.42,.41c.28,.27,.56,.55,.85,.81,.58,.53,1.16,1.06,1.77,1.55,.59,.51,1.22,.98,1.83,1.47,.31,.23,.63,.46,.94,.69,.16,.11,.31,.23,.47,.34l.48,.33,.48,.33c.16,.11,.32,.22,.48,.32l.98,.62c.33,.21,.66,.4,.99,.59l.5,.29,.5,.28c1.33,.76,2.7,1.43,4.07,2.06l1.03,.46,1.04,.43c.17,.07,.35,.15,.52,.21l.52,.2c.35,.13,.7,.27,1.05,.4,1.4,.51,2.81,.96,4.22,1.38,1.41,.4,2.83,.76,4.24,1.08,.35,.08,.71,.15,1.06,.23l.53,.11,.53,.1,1.06,.2,1.06,.18c1.41,.23,2.83,.43,4.24,.58,.71,.09,1.41,.15,2.11,.21,.7,.06,1.41,.12,2.11,.16,1.41,.1,2.81,.15,4.2,.19l1.05,.02h1.05c.35,.01,.69,0,1.04,0h1.03c2.75-.05,5.51-.18,8.25-.4,2.74-.22,5.48-.53,8.2-.94,5.44-.82,10.84-1.99,16.13-3.52l1.98-.59c.32-.1,.67-.21,1.01-.32,.34-.11,.69-.22,1.03-.34,1.37-.46,2.76-.98,4.15-1.55,1.39-.57,2.78-1.22,4.18-1.95,.7-.36,1.4-.76,2.09-1.16,.7-.42,1.39-.85,2.08-1.33,1.38-.94,2.74-2,4.04-3.24l.49-.46,.48-.49c.32-.32,.63-.67,.94-1.01,.15-.17,.3-.35,.45-.53,.15-.18,.3-.35,.45-.54,.29-.37,.58-.74,.85-1.14,.14-.2,.28-.39,.41-.59l.39-.61,.19-.31,.18-.31,.36-.63c.12-.21,.23-.43,.34-.65,.11-.22,.23-.43,.33-.66,.21-.45,.42-.89,.59-1.35,.09-.23,.18-.46,.27-.68l.25-.7c.08-.23,.15-.47,.23-.71l.11-.36,.1-.36c.13-.48,.24-.96,.35-1.44,.09-.48,.19-.96,.25-1.44,.29-1.92,.34-3.82,.23-5.66-.06-.92-.16-1.82-.3-2.71-.14-.89-.32-1.76-.53-2.61-.21-.86-.46-1.69-.73-2.51-.14-.41-.28-.81-.43-1.22-.16-.4-.31-.8-.48-1.19-.66-1.57-1.43-3.07-2.3-4.52-.11-.18-.22-.36-.33-.54l-.17-.27-.17-.26-.69-1.03c-.24-.34-.49-.67-.73-1-.12-.17-.24-.33-.37-.5l-.39-.48-.39-.48-.2-.24-.2-.23-.82-.93c-.28-.31-.57-.6-.86-.9-.15-.15-.28-.3-.44-.45l-.45-.43-.45-.43-.23-.21-.24-.21-.95-.83c-.32-.27-.65-.53-.98-.79-.17-.13-.33-.26-.5-.39l-.51-.37-.51-.37c-.09-.06-.17-.12-.26-.18l-.27-.18-1.07-.7c-.74-.44-1.47-.88-2.24-1.27-.76-.41-1.56-.76-2.35-1.11-.81-.32-1.62-.65-2.46-.92-.42-.14-.83-.28-1.27-.39-.43-.12-.85-.23-1.29-.34-.88-.21-1.77-.38-2.66-.51-3.57-.51-7.18-.38-10.7,.39-.88,.19-1.76,.43-2.63,.7-.87,.27-1.73,.6-2.58,.95-.85,.36-1.68,.77-2.5,1.21-.82,.45-1.62,.95-2.4,1.48-.78,.54-1.53,1.13-2.26,1.75l-.54,.48-.52,.5c-.18,.17-.34,.34-.51,.51l-.49,.51c-1.29,1.4-2.42,2.93-3.37,4.52-.95,1.59-1.72,3.26-2.33,4.93-.62,1.68-1.06,3.37-1.38,5.05-.32,1.68-.51,3.36-.59,5.01-.08,1.66-.05,3.3,.08,4.92,.13,1.62,.35,3.23,.66,4.81,.07,.4,.17,.79,.25,1.19,.09,.39,.19,.79,.29,1.18,.22,.78,.43,1.57,.69,2.34l.19,.58c.03,.1,.06,.19,.1,.29l.1,.28,.42,1.13c.14,.38,.3,.74,.46,1.11l.23,.56,.25,.55c.65,1.46,1.41,2.87,2.22,4.24l.69,1.13,.73,1.11,.18,.28,.19,.27,.39,.54,.39,.54,.41,.52,.41,.52,.2,.26,.21,.26,.86,1.02,.89,.99,.22,.25,.23,.24,.47,.48,.47,.48,.49,.46,.49,.46,.24,.23,.25,.22,1.02,.88,1.05,.85c1.42,1.11,2.93,2.14,4.52,3.06,1.59,.92,3.27,1.73,5.02,2.42l.66,.25,.33,.13c.11,.04,.22,.08,.34,.11,.45,.15,.9,.3,1.35,.44,.46,.13,.92,.26,1.38,.38,.12,.03,.23,.06,.35,.09l.35,.08,.7,.15c1.88,.39,3.82,.63,5.77,.69,.49,0,.98,0,1.46,0h.37c.12,0,.24-.01,.37-.02l.73-.04,.73-.05c.24-.02,.47-.05,.71-.08l.71-.08,.35-.04,.35-.06c.47-.08,.94-.15,1.4-.24l1.38-.3c.11-.03,.23-.05,.34-.08l.34-.09,.68-.18c.22-.06,.45-.12,.67-.19l.66-.21c1.76-.56,3.47-1.24,5.06-2,1.6-.76,3.11-1.6,4.56-2.48,1.44-.88,2.79-1.81,4.09-2.75,1.3-.94,2.54-1.9,3.73-2.86,.6-.48,1.18-.96,1.76-1.44l.86-.72,.84-.71c2.24-1.9,4.36-3.76,6.43-5.49,1.03-.86,2.06-1.69,3.07-2.47l.76-.58,.19-.14,.19-.14,.38-.28,.38-.28,.37-.26,.75-.52,.76-.5,.38-.25,.39-.24,.78-.48,.79-.46c.13-.08,.26-.16,.4-.23l.4-.22,.8-.44,.81-.42c.14-.07,.27-.14,.41-.21l.41-.2c4.39-2.15,9.12-3.68,13.95-4.57l.91-.16,.23-.04,.23-.03,.46-.07c.61-.1,1.22-.17,1.83-.24,1.22-.13,2.44-.25,3.67-.3,2.45-.12,4.9-.06,7.33,.16,4.84,.45,9.67,1.57,13.98,3.37,1.08,.45,2.13,.94,3.14,1.48,1.01,.54,1.98,1.12,2.92,1.74l.69,.48c.12,.08,.23,.16,.34,.24l.33,.25,.33,.24,.27,.21c.09,.07,.18,.15,.26,.22,.09,.07,.18,.15,.26,.23,.69,.61,1.35,1.3,1.92,2,.57,.71,1.05,1.44,1.42,2.14,.36,.69,.6,1.35,.71,1.86l.02,.1v.05l.02,.04c0,.06,.02,.12,.03,.17,0,.05,0,.1,.02,.16,0,.01,0,.03,0,.04v.03s0,.05,0,.07c0,.18,0,.32-.01,.43-.02,.11-.04,.2-.07,.29-.01,.02-.02,.04-.03,.07,0,.02-.03,.05-.04,.07,0,.01,0,.03-.02,.04,0,0-.01,.02-.02,.03,0,.01-.01,.02-.02,.03,0,.01-.02,.02-.02,.03-.05,.08-.1,.15-.18,.22-.08,.08-.18,.16-.32,.26-.04,.02-.07,.05-.12,.07-.04,.02-.09,.05-.13,.08-.05,.02-.1,.05-.15,.08-.05,.03-.11,.05-.17,.08-.23,.1-.51,.2-.81,.29-.31,.09-.66,.15-1.03,.21-.18,.03-.38,.05-.57,.07l-.3,.02c-.1,0-.2,0-.3,.01-.41,.01-.83,0-1.25-.02-.42-.03-.85-.08-1.28-.15-.42-.07-.84-.17-1.24-.27l-.15-.04-.07-.02s-.06-.02-.09-.03l-.35-.11c-.12-.03-.23-.08-.35-.12-.12-.04-.23-.08-.35-.12-.92-.34-1.83-.74-2.7-1.22l-.33-.18-.32-.19-.16-.09-.16-.1-.31-.2c-.41-.27-.82-.55-1.21-.85-.79-.59-1.51-1.25-2.18-1.94-.09-.08-.16-.18-.25-.26-.08-.09-.17-.17-.24-.26-.15-.18-.32-.36-.46-.54-.3-.36-.58-.74-.84-1.12-.52-.77-.97-1.56-1.33-2.37l-.13-.3-.12-.31c-.02-.05-.04-.1-.06-.15l-.05-.15-.11-.31-.1-.31-.05-.15-.04-.15-.08-.29-.07-.3-.04-.15-.03-.15-.06-.31-.05-.31c-.02-.1-.03-.21-.04-.31l-.04-.32c-.01-.11-.02-.21-.02-.32-.02-.21-.02-.43-.03-.64,0-.43,0-.86,.03-1.3,.03-.43,.09-.87,.16-1.3,.15-.86,.37-1.71,.68-2.5l.11-.3,.13-.29,.06-.15,.07-.14,.13-.28,.14-.27,.07-.14,.08-.13,.15-.27,.16-.26,.08-.13,.09-.12,.17-.25,.18-.23,.09-.12,.09-.11c.06-.07,.12-.15,.18-.23l.19-.21,.09-.11,.1-.1c.07-.07,.13-.13,.19-.2l.2-.19,.1-.1s.07-.06,.1-.09c.07-.06,.14-.12,.21-.18l.21-.16,.1-.08s.07-.05,.11-.08c.07-.05,.14-.1,.22-.16,.08-.05,.16-.1,.24-.15,.08-.05,.16-.1,.24-.15,.16-.1,.33-.19,.5-.29,.18-.09,.35-.18,.53-.26,.36-.16,.74-.32,1.14-.45,1.59-.54,3.49-.8,5.52-.77,2.03,.03,4.19,.36,6.31,.93,1.1,.3,2.23,.67,3.37,1.07l.86,.32c.29,.11,.58,.23,.87,.34,.15,.06,.29,.11,.44,.17l.44,.18c.29,.12,.59,.24,.88,.37l.83,.36,.84,.38,.42,.19,.43,.2,.85,.4c1.15,.54,2.32,1.1,3.52,1.68l1.82,.87,.93,.44,.94,.44c.31,.15,.64,.29,.95,.44,.32,.15,.64,.29,.97,.44,.66,.29,1.31,.58,1.97,.86,1.32,.57,2.68,1.11,4.06,1.63,1.39,.51,2.78,1,4.23,1.44,1.43,.45,2.91,.85,4.4,1.21l1.13,.25,.57,.13,.57,.11,1.15,.22c.39,.07,.78,.13,1.16,.19,.77,.13,1.57,.22,2.35,.31l.3,.03,.3,.03,.6,.05,.6,.05c.2,.02,.4,.03,.6,.04,.81,.04,1.61,.09,2.43,.08,.41,0,.81,0,1.22,0,.42-.01,.83-.02,1.25-.04,1.67-.08,3.33-.25,4.98-.53,1.65-.28,3.29-.65,4.92-1.13l.61-.18,.61-.2,.3-.1,.3-.11,.6-.22c.8-.3,1.6-.62,2.39-.98,.79-.35,1.57-.74,2.34-1.15,.77-.42,1.53-.86,2.28-1.34,2.99-1.9,5.77-4.35,8.05-7.28,.15-.18,.28-.37,.41-.55l.41-.55c.26-.37,.51-.74,.76-1.11,.23-.37,.48-.75,.7-1.12l.33-.56c.11-.19,.22-.37,.32-.56,.82-1.49,1.51-2.97,2.12-4.4,1.21-2.86,2.09-5.54,2.94-7.94,.85-2.4,1.67-4.52,2.57-6.24,.45-.87,.92-1.62,1.4-2.29l.18-.25c.06-.08,.13-.16,.19-.23l.19-.23,.2-.22,.2-.23c.06-.08,.14-.14,.21-.22,.14-.14,.27-.29,.43-.42,1.16-1.11,2.58-2.05,4.28-2.85,1.7-.79,3.67-1.42,5.8-1.91,2.13-.49,4.42-.83,6.82-1.07,2.4-.25,4.89-.4,7.47-.52l-.2-4.1c-2.54,.12-5.04,.27-7.49,.52-2.44,.25-4.84,.59-7.13,1.09-2.3,.5-4.49,1.17-6.5,2.06-2.01,.89-3.83,1.99-5.37,3.35-.77,.68-1.47,1.42-2.11,2.22-.64,.8-1.22,1.67-1.75,2.62-1.08,1.89-1.96,4.07-2.81,6.39-.85,2.33-1.66,4.82-2.67,7.38-.5,1.28-1.05,2.59-1.69,3.89-.64,1.3-1.37,2.61-2.22,3.88-.22,.32-.42,.64-.66,.95-.23,.31-.46,.62-.7,.93-.48,.62-1,1.2-1.53,1.76-1.07,1.13-2.23,2.15-3.45,3.07-1.22,.92-2.51,1.73-3.84,2.45-1.33,.72-2.69,1.33-4.09,1.85-2.79,1.04-5.67,1.72-8.58,2.06-.36,.05-.73,.08-1.09,.11-.37,.03-.73,.06-1.1,.08-.37,.02-.73,.04-1.1,.05h-2.18c-.18,0-.36,0-.54-.01l-.54-.02-.54-.03h-.27l-.27-.03-1.07-.09c-.36-.03-.71-.07-1.06-.11l-1.06-.13-1.05-.16-.53-.08c-.18-.03-.35-.06-.52-.1l-1.04-.2c-.17-.03-.35-.07-.52-.11l-.51-.11c-.34-.08-.69-.15-1.02-.23l-1.01-.26c-2.7-.7-5.31-1.58-7.85-2.56-.64-.24-1.26-.5-1.89-.76-.32-.13-.62-.26-.93-.39-.31-.13-.62-.26-.93-.4-1.23-.54-2.45-1.1-3.64-1.66-1.19-.56-2.37-1.13-3.53-1.68l-1.73-.83-.86-.41c-.29-.14-.57-.27-.86-.4-1.14-.54-2.27-1.04-3.4-1.52-.56-.23-1.13-.47-1.69-.69-.56-.23-1.12-.43-1.68-.64-.28-.1-.56-.2-.84-.29-.28-.1-.56-.2-.84-.28l-.84-.27-.84-.24-.42-.12-.41-.11c-.27-.07-.55-.13-.83-.2-.55-.12-1.11-.23-1.66-.33-2.22-.38-4.45-.51-6.59-.34-2.14,.17-4.18,.64-6,1.45-.45,.2-.89,.43-1.32,.67l-.31,.19-.16,.09-.15,.1-.31,.2-.29,.21c-.2,.13-.38,.29-.57,.43-.1,.07-.18,.15-.27,.23l-.27,.23c-.35,.33-.7,.66-1.02,1.03-1.3,1.45-2.32,3.22-3.02,5.14-.34,.96-.6,1.96-.78,2.97-.18,1.01-.26,2.04-.26,3.07,0,.51,.03,1.02,.07,1.53,.01,.13,.03,.25,.04,.38,.02,.13,.02,.25,.05,.38l.06,.38,.03,.19,.04,.19,.07,.37c.02,.12,.06,.24,.08,.37,.03,.12,.05,.25,.09,.37l.1,.36,.05,.18,.06,.18,.12,.37c.04,.12,.09,.24,.13,.36,.04,.12,.08,.24,.13,.36,.37,.96,.83,1.9,1.36,2.8,.53,.9,1.14,1.77,1.82,2.59,.67,.82,1.42,1.6,2.21,2.32,.8,.72,1.65,1.4,2.54,2.01,.9,.61,1.83,1.16,2.8,1.65,.97,.48,1.97,.9,3,1.25l.19,.07,.19,.06,.39,.12c.07,.02,.13,.04,.19,.05l.18,.05,.18,.05,.18,.05c.49,.13,.99,.22,1.5,.3,1.01,.16,2.03,.23,3.04,.2,.5-.01,.99-.05,1.48-.11,.48-.06,.95-.15,1.41-.25,.45-.11,.89-.25,1.3-.4,.41-.15,.79-.34,1.15-.53l.26-.15c.08-.05,.16-.11,.25-.16l.06-.04,.06-.04,.12-.08,.12-.08,.11-.09,.11-.09s.07-.06,.1-.09c.07-.06,.13-.12,.2-.18,.12-.13,.25-.25,.36-.39l.09-.1s.05-.07,.08-.1c.05-.07,.11-.14,.16-.21,.05-.07,.09-.15,.14-.22,.05-.07,.09-.15,.13-.23l.07-.11,.06-.12c.04-.08,.08-.16,.12-.24,.06-.17,.14-.32,.19-.49,.06-.16,.1-.34,.15-.51l.05-.26s.02-.09,.02-.13l.02-.14,.02-.13v-.14c.02-.09,.02-.19,.03-.28,0-.09,0-.19,0-.29,0-.05,0-.1,0-.14v-.15c-.02-.39-.09-.8-.17-1.22l-.07-.32-.09-.32c-.02-.11-.06-.21-.1-.32l-.05-.16-.03-.08-.03-.08-.12-.33c-.04-.11-.09-.22-.13-.33-.08-.22-.2-.44-.29-.66l-.17-.33-.08-.16-.09-.16-.18-.33-.2-.32c-.06-.11-.13-.22-.2-.32l-.21-.32c-.15-.21-.29-.43-.45-.63-.3-.42-.64-.82-.98-1.22Z" fill="#2ccfe5"/></g></g></g></g></svg>